# xmcd
#
# Track frame offsets:
#	150
#	15776
#	35034
#	48664
#	63532
#	78766
#	92189
#	104329
#	118547
#	136553
#	153400
#	169773
#	182096
#	201877
#	220500
#
# Disc length: 3190 seconds
#
# Revision: 0
# Processed by: cddbd v1.5.1PL2 Copyright (c) Steve Scherf et al.
# Submitted via: audiograbber 1.83.01
#
DISCID=be0c740f
DTITLE=The Blues Brohters Movie Artists - EKBB01
DYEAR=1900
DGENRE=Karaoke Soundtrack
TTITLE0=Cab Calloway - Minnie The Moocher
TTITLE1=Elwood and Jake - Sweet Home Chicago
TTITLE2=Shake a Tail Feather - Ray Charles, Elwood and JakeShake A Tail Feather
TTITLE3=Jake Blues - Jailhouse Rock
TTITLE4=Aykroyd, Goodman and Blues Brothers - Riders In The Sky
TTITLE5=Jake Blues - Gimme Some Lovin'
TTITLE6=Elwood and Jake - Everybody Needs Somebody
TTITLE7=Aretha Franklin and Blues Brothers Band - Respect
TTITLE8=Jake Blues - She Caught The Katy
TTITLE9=Floyd, Pickett, Lang and Blues Brohters Band634 - 5634789
TTITLE10=Aretha Franklin - Think
TTITLE11=Jake and Elwood - Rawhide
TTITLE12=Morton, Aykroyd, Goodman, Shaffer, Badu and Blues Brothers Band - Funky 
TTITLE13=Maha,, Moore, Morton, Riley and Chorale - John The Revelator
TTITLE14=Louisiana Gator Boys and Blues Brothers Band - New Orleans
EXTD=
EXTT0=
EXTT1=
EXTT2=
EXTT3=
EXTT4=
EXTT5=
EXTT6=
EXTT7=
EXTT8=
EXTT9=
EXTT10=
EXTT11=
EXTT12=
EXTT13=
EXTT14=
PLAYORDER=
